<svg xmlns="http://www.w3.org/2000/svg" width="900" height="520"><rect width="900" height="520" fill="#f8fafc"/><text x="40" y="40" font-family="Arial" font-size="28" font-weight="bold">Customer Loyalty Mobile App Wireframe</text><g fill="#fff" stroke="#1f5eff" stroke-width="3"><rect x="40" y="80" width="240" height="360" rx="22"/><rect x="330" y="80" width="240" height="360" rx="22"/><rect x="620" y="80" width="240" height="360" rx="22"/></g><g font-family="Arial" fill="#1f2937"><text x="90" y="130" font-size="22" font-weight="bold">Login</text><text x="70" y="190" font-size="16">Email</text><rect x="70" y="205" width="180" height="35" fill="#e7f0ff"/><text x="70" y="275" font-size="16">Password</text><rect x="70" y="290" width="180" height="35" fill="#e7f0ff"/><rect x="100" y="360" width="120" height="40" fill="#1f5eff"/><text x="122" y="386" fill="#fff">Log In</text><text x="380" y="130" font-size="22" font-weight="bold">Dashboard</text><text x="370" y="190" font-size="16">Points: 1,250</text><rect x="370" y="220" width="160" height="45" fill="#e7f0ff"/><text x="370" y="310" font-size="16">Recent Activity</text><rect x="370" y="330" width="160" height="75" fill="#e7f0ff"/><text x="670" y="130" font-size="22" font-weight="bold">Coupons</text><text x="660" y="190" font-size="16">20% Off Coupon</text><rect x="690" y="220" width="100" height="100" fill="#111"/><text x="660" y="360" font-size="16">QR Redemption</text></g></svg>